<svg id="Capa_1" enable-background="new 0 0 512 512" height="512" viewBox="0 0 512 512" width="512" xmlns="http://www.w3.org/2000/svg"><g><ellipse cx="123.405" cy="451.045" fill="#f6e266" rx="63.455" ry="27.537" transform="matrix(.309 -.951 .951 .309 -343.694 428.929)"/><path d="m117.693 442.532c-9.332 28.7-8.452 55.547 1.221 65.454-5.318 3.58-10.529 4.907-15.131 3.404-14.462-4.707-17.397-35.533-6.562-68.858 10.835-33.326 31.342-56.533 45.804-51.838 2.007.657 3.803 1.82 5.353 3.416-11.398 7.677-23.301 25.696-30.685 48.422z" fill="#ffd064"/><ellipse cx="388.595" cy="451.045" fill="#f6e266" rx="27.537" ry="63.455" transform="matrix(.951 -.309 .309 .951 -120.427 142.267)"/><path d="m415.248 505.967c-1.914 2.653-4.261 4.519-7.031 5.423-14.474 4.707-34.981-18.5-45.816-51.826-10.835-33.337-7.9-64.163 6.562-68.87 3.792-1.233 8.006-.54 12.349 1.749-8.064 11.199-8.311 36.495.446 63.435 8.006 24.593 21.27 43.668 33.49 50.089z" fill="#ffd064"/><circle cx="482.164" cy="21.356" fill="#e7a561" r="21.352"/><circle cx="29.836" cy="21.356" fill="#e7a561" r="21.352"/><circle cx="418.973" cy="84.547" fill="#f6e266" r="84.543"/><path d="m491.905 41.77c-12.548-7.384-27.163-11.61-42.775-11.61-46.696 0-84.553 37.845-84.553 84.541 0 15.612 4.226 30.227 11.61 42.776-24.98-14.685-41.754-41.848-41.754-72.92 0-46.696 37.857-84.553 84.541-84.553 31.083 0 58.246 16.775 72.931 41.766z" fill="#ffd064"/><circle cx="93.027" cy="84.547" fill="#f6e266" r="84.543"/><path d="m111.794 167.004c-6.045 1.362-12.325 2.09-18.77 2.09-46.696 0-84.541-37.857-84.541-84.541.001-46.696 37.846-84.553 84.542-84.553 6.444 0 12.724.728 18.77 2.089-37.657 8.534-65.783 42.212-65.783 82.463 0 40.241 28.125 73.919 65.782 82.452z" fill="#ffd064"/><g><circle cx="256" cy="247.52" fill="#dd636e" r="230.479"/><path d="m270.797 477.536c-4.892.299-9.829.464-14.796.464-127.298 0-230.48-103.197-230.48-230.48s103.182-230.48 230.48-230.48c4.967 0 9.904.165 14.796.464-120.357 7.69-215.594 107.73-215.594 230.016s95.237 222.327 215.594 230.016z" fill="#cb5769"/><circle cx="256" cy="247.52" fill="#d3effb" r="176.153"/><path d="m286.779 421.121c-9.754 1.691-19.793 2.558-30.026 2.558-97.287 0-176.159-78.871-176.159-176.159s78.872-176.158 176.159-176.158c10.233 0 20.271.868 30.026 2.558-82.97 14.242-146.118 86.546-146.118 173.6s63.148 159.358 146.118 173.601z" fill="#9dc6fb"/><path d="m256 269.961h-81.84c-12.393 0-22.441-10.047-22.441-22.441s10.047-22.441 22.441-22.441h81.84c12.393 0 22.441 10.047 22.441 22.441s-10.048 22.441-22.441 22.441z" fill="#365e7d"/><path d="m256 269.961c-12.393 0-22.441-10.047-22.441-22.441v-57.3c0-12.393 10.047-22.441 22.441-22.441 12.393 0 22.441 10.047 22.441 22.441v57.3c-.001 12.394-10.048 22.441-22.441 22.441z" fill="#2b4d66"/><g fill="#365e7d"><g><path d="m256 119.356c-4.268 0-7.726-3.459-7.726-7.726v-35.723c0-4.267 3.459-7.726 7.726-7.726s7.726 3.459 7.726 7.726v35.722c0 4.267-3.458 7.727-7.726 7.727z"/><path d="m256 426.86c-4.268 0-7.726-3.459-7.726-7.726v-35.722c0-4.267 3.459-7.726 7.726-7.726s7.726 3.459 7.726 7.726v35.722c0 4.267-3.458 7.726-7.726 7.726z"/></g><g><path d="m427.614 255.247h-35.722c-4.268 0-7.726-3.459-7.726-7.726s3.459-7.726 7.726-7.726h35.722c4.268 0 7.726 3.459 7.726 7.726s-3.459 7.726-7.726 7.726z"/><path d="m120.109 255.247h-35.723c-4.268 0-7.726-3.459-7.726-7.726s3.459-7.726 7.726-7.726h35.722c4.268 0 7.726 3.459 7.726 7.726s-3.458 7.726-7.725 7.726z"/></g><g><path d="m386.368 179.984c-2.67 0-5.268-1.386-6.698-3.865-2.134-3.696-.867-8.421 2.828-10.554l18.261-10.542c3.694-2.134 8.422-.868 10.554 2.828 2.134 3.696.867 8.421-2.828 10.554l-18.261 10.542c-1.216.703-2.545 1.037-3.856 1.037z"/><path d="m107.385 341.055c-2.67 0-5.268-1.386-6.698-3.865-2.134-3.696-.867-8.421 2.828-10.554l18.261-10.543c3.694-2.134 8.422-.868 10.554 2.828 2.134 3.696.867 8.421-2.828 10.554l-18.261 10.543c-1.216.703-2.545 1.037-3.856 1.037z"/></g><g><path d="m331.258 124.887c-1.311 0-2.639-.334-3.856-1.037-3.695-2.133-4.962-6.859-2.828-10.554l10.542-18.26c2.132-3.696 6.856-4.962 10.554-2.828 3.695 2.133 4.962 6.859 2.828 10.554l-10.542 18.26c-1.431 2.478-4.028 3.865-6.698 3.865z"/><path d="m170.186 403.87c-1.311 0-2.639-.334-3.856-1.037-3.695-2.133-4.962-6.859-2.828-10.554l10.542-18.261c2.133-3.696 6.856-4.962 10.554-2.828 3.695 2.133 4.962 6.859 2.828 10.554l-10.542 18.261c-1.43 2.479-4.028 3.865-6.698 3.865z"/></g><g><path d="m180.742 124.887c-2.67 0-5.268-1.386-6.698-3.865l-10.542-18.26c-2.134-3.696-.867-8.421 2.828-10.554 3.693-2.134 8.422-.868 10.554 2.828l10.542 18.26c2.134 3.696.867 8.421-2.828 10.554-1.216.703-2.545 1.037-3.856 1.037z"/><path d="m341.814 403.87c-2.67 0-5.268-1.386-6.698-3.865l-10.542-18.261c-2.134-3.696-.867-8.421 2.828-10.554 3.693-2.134 8.422-.868 10.554 2.828l10.542 18.261c2.134 3.696.867 8.421-2.828 10.554-1.216.703-2.545 1.037-3.856 1.037z"/></g><g><path d="m125.632 179.984c-1.311 0-2.639-.334-3.856-1.037l-18.261-10.542c-3.695-2.133-4.962-6.859-2.828-10.554 2.133-3.695 6.857-4.963 10.554-2.828l18.261 10.542c3.695 2.133 4.962 6.859 2.828 10.554-1.431 2.479-4.028 3.865-6.698 3.865z"/><path d="m404.615 341.055c-1.311 0-2.639-.334-3.856-1.037l-18.261-10.543c-3.695-2.133-4.962-6.859-2.828-10.554 2.133-3.696 6.857-4.963 10.554-2.828l18.261 10.543c3.695 2.133 4.962 6.859 2.828 10.554-1.431 2.479-4.028 3.865-6.698 3.865z"/></g></g><path d="m256 431.4c-101.391 0-183.879-82.488-183.879-183.879s82.488-183.88 183.879-183.88 183.879 82.488 183.879 183.879-82.488 183.88-183.879 183.88zm0-352.306c-92.87 0-168.427 75.556-168.427 168.427s75.557 168.426 168.427 168.426 168.427-75.556 168.427-168.427-75.557-168.426-168.427-168.426z" fill="#cb5769"/></g></g></svg>