<svg id="Layer_1" enable-background="new 0 0 512.074 512.074" height="512" viewBox="0 0 512.074 512.074" width="512" xmlns="http://www.w3.org/2000/svg"><g><path d="m504.017 256.06c-2.048 0-4.095-.781-5.657-2.343-32.17-32.17-84.516-32.17-116.686 0-3.125 3.125-8.189 3.124-11.314 0-3.124-3.124-3.124-8.189 0-11.314 38.41-38.408 100.904-38.408 139.314 0 5.056 5.055 1.406 13.657-5.657 13.657z" fill="#e48c9b"/><path d="m264.017 144.06c-7.059 0-10.716-8.598-5.657-13.657 32.244-32.242 32.251-84.437 0-116.686-3.124-3.124-3.124-8.19 0-11.314 3.125-3.125 8.189-3.124 11.314 0 38.498 38.499 38.501 100.811 0 139.314-1.562 1.561-3.61 2.343-5.657 2.343z" fill="#e48c9b"/><path d="m385.707 370.96c-21.29 7.99-39.87 14.96-56.25 21.1 0 0 0 0-.01 0-102.62 38.5-118.56 44.47-170.64 64-29.81 11.18-71.45 26.79-147.98 55.49-6.44 2.38-12.71-3.86-10.3-10.3 1.28-3.42 7.58-20.2 16.95-45.19 6.67-17.79 14.9-39.74 23.99-63.98 33.11-88.29 77.61-206.96 99.65-265.71 1.38-3.69 5.24-5.82 9.1-5.03 3.85.79 6.56 4.27 6.38 8.21-1.25 27.16 63.12 132.35 166.25 199.47 26.25 17.08 48.59 26.97 59.68 26.46 3.92-.18 7.42 2.53 8.21 6.38.79 3.86-1.34 7.72-5.03 9.1z" fill="#f1cc76"/><path d="m385.707 370.96c-231.09 86.68-143.33 53.76-374.88 140.59-6.44 2.38-12.71-3.86-10.3-10.3 4.26-11.37 8.6-22.94 13.02-34.72 185.76-69.66 123.27-46.22 331.44-124.29 16.38 8.81 29.74 13.6 37.54 13.24 3.92-.18 7.42 2.53 8.21 6.38.79 3.86-1.34 7.72-5.03 9.1z" fill="#ebb15d"/><g fill="#e48c9b"><path d="m77.477 296.06h130.54c2.12 0 4.16.84 5.66 2.34 16.29 16.3 35.34 32.63 55.08 47.23 6.185 4.577 2.929 14.43-4.76 14.43h-210.52z"/><path d="m166.047 264.06h-76.57c21.841-58.243 24.814-66.199 29.28-78.08.68.67 1.24 1.46 1.66 2.35 8.25 17.81 34.45 40.13 51.97 62.84 4.037 5.252.297 12.89-6.34 12.89z"/><path d="m329.447 392.06c-102.62 38.5-118.56 44.47-170.64 64h-141.33c6.67-17.79 14.9-39.74 23.99-63.98 39.71-.09 125-.03 287.98-.02z"/><path d="m328.017 192.06c-7.069 0-10.706-8.608-5.657-13.657l104-104c3.125-3.124 8.189-3.124 11.314 0 3.124 3.124 3.124 8.19 0 11.314l-104 104c-1.562 1.562-3.609 2.343-5.657 2.343z"/></g><path d="m510.677 51.62c4.84 7.293-3.884 15.876-11.1 11.1-11.88-7.93-27.24-7.93-39.12 0-7.264 4.82-15.915-3.844-11.1-11.1 7.93-11.88 7.93-27.24 0-39.12-4.82-7.264 3.844-15.915 11.1-11.1 11.88 7.93 27.24 7.93 39.12 0 7.264-4.82 15.915 3.844 11.1 11.1-7.93 11.88-7.93 27.24 0 39.12z" fill="#f1cc76"/><path d="m510.677 12.5c4.82-7.264-3.844-15.915-11.1-11.1-1.752 1.17-3.587 2.145-5.468 2.97 1.314 2.532 1.216 5.647-.432 8.13-7.93 11.88-7.93 27.24 0 39.12 1.648 2.483 1.746 5.597.432 8.13 5.678 2.489 6.201 4.31 9.908 4.31 6.369 0 10.198-7.108 6.66-12.44-7.93-11.88-7.93-27.24 0-39.12z" fill="#ebb15d"/><circle cx="440.017" cy="304.06" fill="#79cb9c" r="24"/><path d="m432.017 281.437c21.28 7.552 21.284 37.693 0 45.246 15.59 5.532 32-6.114 32-22.623 0-16.551-16.441-28.144-32-22.623z" fill="#63ac7d"/><circle cx="488.017" cy="128.06" fill="#79cb9c" r="24"/><path d="m480.017 105.437c21.28 7.552 21.284 37.693 0 45.246 15.59 5.532 32-6.114 32-22.623 0-16.55-16.44-28.144-32-22.623z" fill="#63ac7d"/><circle cx="384.017" cy="24.06" fill="#79cb9c" r="24"/><path d="m376.017 1.437c21.28 7.552 21.284 37.693 0 45.246 15.59 5.532 32-6.114 32-22.623 0-16.55-16.44-28.144-32-22.623z" fill="#63ac7d"/><circle cx="207.017" cy="72.06" fill="#79cb9c" r="24"/><path d="m199.517 49.267c9.569 3.159 16.5 12.181 16.5 22.793s-6.931 19.634-16.5 22.793c15.505 5.117 31.5-6.503 31.5-22.793 0-16.325-16.025-27.9-31.5-22.793z" fill="#63ac7d"/><path d="m400.025 192.06c-7.847 0-11.047-10.256-4.445-14.657l48-32c3.677-2.451 8.645-1.457 11.094 2.219 2.451 3.676 1.458 8.643-2.219 11.094l-48 32c-1.364.909-2.906 1.344-4.43 1.344z" fill="#e48c9b"/><path d="m328.009 120.06c-6.3 0-10.22-7.083-6.648-12.438l32-48c2.449-3.676 7.414-4.671 11.094-2.219 3.677 2.451 4.67 7.418 2.219 11.094l-32 48c-1.541 2.312-4.079 3.563-6.665 3.563z" fill="#e48c9b"/><path d="m329.447 392.06c-102.62 38.5-118.56 44.47-170.64 64h-117.33c101.03-37.89 114.8-43.05 170.66-64z" fill="#cc5b6f"/><path d="m385.707 370.96c-68.25 25.6-63.25 23.96-65.33 23.96-1.15 0-2.3-.25-3.37-.74-12.99-6.03-27.84-14.79-43.17-25.28-24.4-16.68-50.05-37.75-71.48-59.18-34.89-34.9-68.83-80.97-84.46-114.65-.49-1.06-.74-2.21-.74-3.37 0-2.09-1.71 3.11 23.96-65.33 1.38-3.69 5.24-5.82 9.1-5.03 3.85.79 6.56 4.27 6.38 8.21-1.25 27.16 63.12 132.35 166.25 199.47 7.63 4.96 14.92 9.32 21.7 12.98 16.55 8.97 30.06 13.83 37.98 13.48 3.92-.19 7.42 2.53 8.21 6.38.79 3.86-1.34 7.72-5.03 9.1z" fill="#edebfd"/><path d="m385.707 370.96c-68.25 25.6-63.25 23.96-65.33 23.96-1.15 0-2.3-.25-3.37-.74-12.99-6.03-27.84-14.79-43.17-25.28l70.71-26.9c16.55 8.97 30.06 13.83 37.98 13.48 3.92-.19 7.42 2.53 8.21 6.38.79 3.86-1.34 7.72-5.03 9.1z" fill="#d2d2fc"/><path d="m390.737 361.86c-.79-3.85-4.29-6.57-8.21-6.38-11.16.5-33.43-9.38-59.68-26.46-102.407-66.648-167.511-171.971-166.25-199.47.18-3.94-2.53-7.42-6.38-8.21-3.86-.79-7.72 1.34-9.1 5.03-12.003 31.997-10.436 27.331-10.52 29.18-1.246 27.162 63.121 132.352 166.25 199.47 26.25 17.08 48.52 26.96 59.68 26.46 1.858-.09-2.886 1.507 29.18-10.52 3.69-1.38 5.82-5.24 5.03-9.1z" fill="#d2d2fc"/><path d="m397.677 365.72c-17.622 17.525-62.543-9.616-83.55-23.29-57.046-37.128-107.279-87.322-144.48-144.48-13.651-20.974-40.812-66.029-23.29-83.55 11.29-11.29 35.66-5.8 72.43 16.32 63.764 38.369 124.174 98.76 162.57 162.57 22.12 36.77 27.61 61.13 16.32 72.43z" fill="#696ead"/><path d="m381.357 293.29c-38.368-63.763-98.758-124.173-162.57-162.57-32.636-19.633-55.494-26.153-68.118-19.48 43.378 12.662 143.272 81.646 203.688 182.05 13.339 22.174 34.926 63.415 11.982 75.616 10.729 3.172 23.361 4.747 31.338-3.186 11.29-11.3 5.8-35.66-16.32-72.43z" fill="#505795"/></g></svg>