<svg xmlns="http://www.w3.org/2000/svg" viewBox="0 0 260.29 331.99"><g id="Layer_2" data-name="Layer 2"><g id="Layer_1-2" data-name="Layer 1"><path d="M212.37,184.28a57.85,57.85,0,0,1,10,7c9.7,8.93,9.16,21.73-1.18,29.91-4.54,3.6-10,5.51-15,8.12-1.67,1.92-4.1,2.29-6.31,3.13-1.58.51-3.14,1.06-4.71,1.6-3.8,1.32-7.71,2.22-11.55,3.39-4.42,1-8.79,2.26-13.25,3.1-2.19.33-4.33.92-6.54,1-1.41.47-2.89.6-4.34.93-21.34,3.49-42.76,5.8-64.44,4.9a27.17,27.17,0,0,0-5.69-.7c-2.27,0-4.46-.74-6.73-.82-9.1-1.53-18.15-3.23-26.69-6.87a42.58,42.58,0,0,0-4.19-1.75c-2.07-1-4.12-2-6.15-3-6.13-3.33-11.59-7.47-14.82-13.83-4.4-8.67-5.22-17.58-1-26.61a8.18,8.18,0,0,1,2.26-3.41c3.51-2.51,2.93-5.3,1.42-8.77C24.39,160.7,20.84,138.7,21.59,116a26.59,26.59,0,0,1,1.09-7.29A210,210,0,0,1,27.13,87c.57-1.36,1.19-2.71,1.7-4.09,6.7-18,20.71-27.06,38.66-31.09,6.43-1.45,12.94-2.53,19.42-3.78l.57.11c2.38,2.05,2.55,5.09,3.46,7.8a21.28,21.28,0,0,1,.18,3.66c0,2.72.4,5.47-.43,8.15a3.54,3.54,0,0,1-2.34,1.7c-6.73,2.33-13.22,5.36-20,7.29-5.87,1.66-9,5.46-10.94,10.75-2.6,7.14-4.72,14.45-7,21.71-2,6.54-4.22,13-6.24,19.58-1.25,4-2.22,5.16,3.16,6.76a2.87,2.87,0,0,1,.94.61A4.31,4.31,0,0,1,49,139c0,6.53,3.43,10.8,9,13.68,1.7.87,3.8,1.42,4.17,3.8-1.11,10.09-2.21,20.18-1.81,30.36.07,1.86.13,3.7.38,5.55a4.37,4.37,0,0,0,3.28,4c1.54.93,1.34,2.54,1.55,4,1.66,11,8.48,18,19.47,20.07,2.08.39,3.93-.28,5.89-.49,1.52.42,2,1.82,2.69,2.95a8.87,8.87,0,0,0,8.59,4.29c11.27-.92,22.24-3.1,32.44-8.26a5.71,5.71,0,0,1,3.44-.66c3.58.58,6.48-1.46,9.56-2.61a15.61,15.61,0,0,1,9.41-.78c5.32,1.21,10.73,2.14,16.19.6,11.16,2.88,22.08.85,32.81-2.07,5.31-1.45,7.65-8.45,5.15-13.36-1.43-2.81-3.84-3.8-6.9-3.1-3.65.82-7.28,1.73-10.88,2.77-1.78.51-3.55,1.3-5.48.78-1.24-.81-.47-1.59.24-2,7.84-4.32,15.3-9.21,22.69-14.24A1.35,1.35,0,0,1,212.37,184.28Z" style="fill:#00b0c2"/><path d="M212.37,184.28a257.67,257.67,0,0,1-24.81,15.81c-1.81,2.88-5,3.53-7.82,4.65-3.11,1.23-5.07,2.84-4.81,6.52.12,1.66-.12,3.52-1.85,4.6-2.71,2.75-6.09,1.29-9.13,1.19a42,42,0,0,1-9.44-1.72c-1.91-.51-3.41.22-5,.78-3.15,1.11-6.26,2.34-9.38,3.55-1,.38-1.94.81-2.14-.81a3.51,3.51,0,0,1-.59-2.08c-.33-5.35-1-6.18-6.1-7.73a4.89,4.89,0,0,1-2.25-1.26c-2-3.36-5.77-4.14-8.88-5.89a5.59,5.59,0,0,0-7.08.85,7.69,7.69,0,0,0-1.61,1.46c.82-.71,1.69-1.35,2.56-2,2.08-1.56,4.16-1.27,6.27-.05,1.83,1.06,3.59,2.24,5.34,3.43.92.63,1.9,1.32,1.2,2.72-3.69,1.74-7.7,1.57-11.62,1.79-5.45.29-10.92-.32-16.36.57-5.76.94-6.28,1.39-7,7.18a4.49,4.49,0,0,1-.77,2.44,5.13,5.13,0,0,1-4.46,1.38c-8.9-1.44-16.2-5.39-20.34-13.74-1.67-3.37-1.68-7.17-1.75-10.88a27.08,27.08,0,0,1,6-12.48,55.63,55.63,0,0,1,7.51-9.12c4.58-5.49,8.2-11.82,14.25-16,6.22-4,12.65-5.54,19.54-1.67a8.34,8.34,0,0,0,3.89,2.65,3.79,3.79,0,0,1,.89.58c2.65,3.36,6.18,5.64,9.64,8.07,8.59,6,15.65,13.85,24.11,20,2.05,1.91,1.33,3.36-.7,4.73-5.34,3.62-11.12,6.48-17.19,10.24a173,173,0,0,0,20-11.92c.83-.64,1.74-1.14,2.6-1.72A125.85,125.85,0,0,0,170.3,177a45,45,0,0,0,4.18-4.11,19.34,19.34,0,0,0,2.49-2.3c1.37-.95,2.84-1.8,3.43-3.51a43.28,43.28,0,0,1,22.71-11,2.86,2.86,0,0,1,2.46.5l2.21,0c.28-.32.52-.3.74.05,1.09.24,2.17.52,3.27.71,9.06,1.62,12.64,8.26,9.21,16.83C219.25,178.6,215.44,181.09,212.37,184.28Z" style="fill:#004c9c"/><path d="M205.57,156.58a45.84,45.84,0,0,0-24.78,11.22,2.93,2.93,0,0,1-2.26,1.58c-12.7.86-25.41.32-38.13.29a4.32,4.32,0,0,1-2.13-.63c-1.69-1.61-1.32-3.65-1.08-5.61,1.45-11.83,3.17-23.63,4.36-35.5.2-2.08.37-4.24,1.81-6a21.64,21.64,0,0,1,14.08.13c16.21,0,32.42.11,48.63.06,2.7,0,3.81.16,3.36,3.56-1.23,9.3-2,18.67-3.73,27.91A19.57,19.57,0,0,0,205.57,156.58Z" style="fill:#fdfdfd;stroke:#a5a5a5;stroke-miterlimit:10;stroke-width:0.25px"/><path d="M157.44,122.08l-14,0-.29-.49a4,4,0,0,1,.15-1.68c1.82-2.55,1.69-5.2.9-8.14-2-7.58-3.91-15.2-5.75-22.82A17.5,17.5,0,0,0,128.2,76.44c-3.19-1.43-6.4-2.79-9.55-4.29a7.52,7.52,0,0,1-1.42-.85c-2.53-1.77-5.77-2.29-8-4.56a2.51,2.51,0,0,1,0-2.19c6.53-1.81,6.92-7.29,7.61-12.62.19-1.42-.06-3.1,1.78-3.75,25.23,4.93,36.27,23.79,39,44.17A103.92,103.92,0,0,1,157.44,122.08Z" style="fill:#00b0c2"/><path d="M86.91,48.08A99.69,99.69,0,0,1,78.82,33c-3.46-8.64-1.51-16.5,5.32-21.92,5-4,9.19-9.66,16.62-10.73,10.6-1.54,19.79,1.85,24.49,10.19,3.14,5.6,2.78,8.19-1.78,12.66-.31.31-1,.39-.56,1.08,2.88,5-.64,9-2.13,13.28-1.66-.32-2.33-2.48-4.38-2.22a1.58,1.58,0,0,1-1.85-1.48c0-1,.8-1.45,1.6-1.86,1-.52,2.81-.08,2.74-1.93S117,28,115.65,27.5A33.09,33.09,0,0,1,107.49,23c-1-.69-1.62-1.45-2.19.56-.51,1.81-2.31,1.32-3.45.57-2.21-1.44-3.58-.46-5.18,1.07a13.84,13.84,0,0,0-4.12,9c-.18,1.58.07,3.31-1.55,4.38a1.49,1.49,0,0,1-1-.06c-.83-.89-.69-2.07-.89-3.14-.27-1.42-.77-2.84-2.49-2.68s-2.24,1.63-2.3,3.27a8.52,8.52,0,0,0,1.38,4.91,24.67,24.67,0,0,1,2.2,3.43c.18,1.32,1.68,2.89-.67,3.75Z" style="fill:#54250d"/><path d="M90.86,38.34a10,10,0,0,0,.77-4.73c.06-5.31,3.84-8.39,7-11.83.78-.84,1.29-.08,1.85.34,1.17.9,2.29,1.92,3.94,2,1.08-1.27-.58-2.61.31-4.12,4.63,2.88,8.89,6.46,14.48,7.78,1.8.43.66,3.28.81,5.12-1.77.17-3.61-1.06-5.24.93,2.13,1.16,5.67.14,6,3.75-.67,3-1.35,6-2,9-4.46,1.56-8.91,2.24-13.43.1-1.39-.66-3-.21-4.44,0C94.2,47.76,91.15,45.21,90.86,38.34Z" style="fill:#f5b59f"/><path d="M208.71,236.68l5.7,17.42,6.93,21.54c2.43,3,3,6.73,4.13,10.24,2,6.13,4,12.26,6,18.36a8,8,0,0,1,.76,4c-1.37,2.93-3.65.69-5.48,1-2.53-.93-2.76-3.42-3.47-5.44-3.13-8.81-5.93-17.74-8.92-26.61-4.7-13.95-9.52-27.86-14.34-41.77-.4-1.18-.93-2.33-.42-3.62l6.59-2.4Z" style="fill:#904529"/><path d="M90.86,38.34A24.16,24.16,0,0,1,92,40.64c1.84,5.32,3.63,6.33,9.2,5,1.21-.28,2.41-.76,3.63-.31,4.12,1.55,8.21,2.83,12.5.48.55-.3,1.19.11,1.48.76-.05.52-.11,1-.17,1.58-1.19,3-1,6.26-1.67,9.36-1.13,5.16-2.09,6.07-7.15,6.84-3.21,1-6-.42-9-1.36A65.75,65.75,0,0,1,93,58.86a5.88,5.88,0,0,1-2.73-3.35c-1-2.5-2-5-3.08-7.51,1.47-1.27-.33-2.46-.09-3.7,1.56-1.7.26-4.79,2.91-6Z" style="fill:#6f3219"/><path d="M208.52,156.68l-.74-.05c-.42-.78-1.81-1-1.32-2.28a.75.75,0,0,1,1.18-.32C208.7,154.64,209.24,155.46,208.52,156.68Z" style="fill:#f5baa9"/><path d="M231.72,308.61l-10.38-33c7.74,2.7,15.82,4.33,23.24,8.08,4.7,2.38,9.19,4.85,12.8,8.8,4.71,5.15,3.29,11-1.31,15.11-8.23,7.35-18.53,10.59-28.84,13.49-15.8,4.46-32,6.66-48.33,8.55-24.49,2.85-49,2.52-73.56,1.88a323.38,323.38,0,0,1-46.25-4.8c-13.39-2.3-26.64-5-39.27-10.05-5.53-2.2-11.13-4.52-15.52-8.8-6.27-6.12-5.64-13.51,1.58-18.65a70.31,70.31,0,0,1,20.49-9.78,21.56,21.56,0,0,0,5.88-2.36c1.23,1.45.25,2.85-.17,4.19-1.49,4.73-3.15,9.42-4.67,14.14-.49,1.5-.94,3.07,1.6,3,3.05-.63,4.46-2.79,5.41-5.51,1.87-5.36,4-10.64,6.08-15.91.53-1.34.77-2.94,2.56-3.33,9.2-1.81,18.4-3.59,27.72-4.65,1.36-.16,2.72-.5,4,.21,1.52,2.26.09,4.32-.57,6.33-4.36,13.34-8.6,26.71-12.85,40.07a18.18,18.18,0,0,0-.74,2.88c1.26,3.76,3.08.69,4.66.37a7.56,7.56,0,0,0,2-3.5c5.6-14.75,11.31-29.46,16.82-44.25.67-1.79.94-4,3.6-4.18,19.41-1.53,38.84-1.64,58.28-1.45,7.35.08,14.65,1.22,22,1,2.32-.3,2.51,1.63,3.06,3,3.12,7.84,5.85,15.83,9,23.68.76,1.91,1.12,4.16,3.55,4.88a4.5,4.5,0,0,0,3.43.29c.95-1.41,0-2.65-.43-3.86-2.16-6.58-4.4-13.14-6.4-19.77-.59-2-2.23-4-.59-6.27,5-.59,9.84.62,14.71,1.28,5.15.69,10.29,1.54,15.41,2.43,1.8.36,2.09,2,2.6,3.32,3.53,9.4,7.18,18.75,10.75,28.14.85,2.23.85,5.42,4.37,5.75C229,309.68,230.68,310.89,231.72,308.61Z" style="fill:#e7a59c"/><path d="M39.8,253.2a130.42,130.42,0,0,0,5.31-16.46l1.28-3L52,236.53c.86,1.31.47,2.62,0,3.93-6.17,17.86-12.22,35.76-18.31,53.64-.84,2.45-2.54,3.86-4.29,5.39-4.36.17-4.36.16-3-4q3-9.19,5.89-18.4Q36,265.15,39.8,253.2Z" style="fill:#904529"/><path d="M118.56,71.32c7.17,3.13,15.29,4.81,19.26,12.76,2,3.92,2.37,8.26,3.51,12.41,1.23,4.52,2.29,9.09,3.49,13.63,1,3.66,2.26,7.31-.85,10.63a29.8,29.8,0,0,1-7.36,3.33c-1.35.4-2.67,1-2.44,2.75a23,23,0,0,1-.7,10.93c-.29.82.37,1.65.68,2.45.91,4,2.66,7.66,3.89,11.53.31,2,.08,3.84-2.09,4.8-8.91,1.29-17.63-.31-26.35-1.83A134.9,134.9,0,0,1,75.08,144c-3.38-1.6-6.15-3.46-4.88-8.25-5.82,1.51-11.24,2.91-16.9,2.51-1.87-.13-3.78,0-5.11-1.71a10.46,10.46,0,0,1-1.49-.19c-5.2-1.42-5.4-1.56-3.83-6.57,4.43-14.21,8.9-28.42,13.56-42.56,1.87-5.68,5.33-9.75,11.68-11.38,7.57-1.94,14.5-5.9,22.18-7.66a3.25,3.25,0,0,1,2.87-.35c5.69,1.31,11.29,1.39,16.75-1l7.8,3.82a1.34,1.34,0,0,0,.08,1.08c4.85,6.43,4.73,13.87,4.56,21.38-.09,4.3-.33,8.61.21,12.37a176.62,176.62,0,0,1-.18-18.2c.07-4.72-.47-9.15-3.22-13.12A2.79,2.79,0,0,1,118.56,71.32Z" style="fill:#0078b7"/><path d="M48.19,136.5c7.93,1.69,15.58.28,23-2.45.2.48.4.7.37.89-1,5.59-1,5.72,4.33,8.18a137.38,137.38,0,0,0,53.85,12.7c2.1.05,4.25-.26,6.28.6,2.9,2.52,1,5.22.32,7.89-1.56,2.93-4.09,2.11-6.53,1.68-4.08-.48-7.81-2.22-11.71-3.34a4,4,0,0,1-1.8-1.41.32.32,0,0,0-.42-.21c-1.43-.68-3-1.15-4-2.45-6.92-3.62-13.35-2-19.56,1.86-3.17,1.53-6.41,0-9.61.21a108.1,108.1,0,0,1-16.85-2.79c-1.55-.41-3.18-.69-4.17-2.18-1.75-.9-3.55-1.73-5.25-2.71C50.05,149.3,47.32,143.79,48.19,136.5Z" style="fill:#f5b59f"/><path d="M91.12,220.29c-1.18-7.86.3-9.85,8-10.77,8-1,16.13,0,24.13-1.2,1.21-.19,2.51.07,3.57-.78a1.61,1.61,0,0,1,2.24-.15l2.19,1c4.63,2.68,4.23,7,3.74,11.36-10.4,5.69-21.81,7.6-33.39,8.52C96.22,228.69,93,225.06,91.12,220.29Z" style="fill:#8bcfe4"/><path d="M173.08,215.86c.29-1.21,1-2.48.79-3.61-.86-5.33,2.21-7.43,6.6-8.87a64,64,0,0,0,7.09-3.29c5.42-1.38,10.83-2.8,16.27-4.12s9,1.53,9.29,7.08c.32,7-2.07,10.65-8.87,12.18-9.49,2.14-19.12,3.38-28.89,2.09C174.32,217.18,173.35,217.12,173.08,215.86Z" style="fill:#8bcfe4"/><path d="M61.67,155.68a132.94,132.94,0,0,0,20.93,4c2.29,2-.89,1.93-1.15,3a12.86,12.86,0,0,0-4.93,8.51c-.84,4.95-3,9.41-5.21,13.83a23,23,0,0,0-4.89,9c-.29,1.15-.44,2.5-1.85,3-2.78.33-4.46,0-4.74-3.65A135.22,135.22,0,0,1,59.88,170C60.35,165.21,60.49,160.39,61.67,155.68Z" style="fill:#0078b7"/><path d="M59.33,319.07q7.76-24.36,15.5-48.72a6.26,6.26,0,0,0,.14-.73c-.94-1.78.13-3.33.63-4.91,1.08-3.38,2.21-6.74,3.3-10.12,1.54-3.08,1.4-6.88,4-9.53l6.45.77c1.16,1.44.4,2.88-.06,4.26-7,21.43-14.58,42.7-21.7,64.11-.61,1.85-1.14,3.85-2.75,5.23C62.92,320.45,61,321.44,59.33,319.07Z" style="fill:#904529"/><path d="M170.08,239.77,174.76,254a31.25,31.25,0,0,1,4.72,14.86c2.94,9.19,5.9,18.37,8.8,27.58.33,1.06,1.82,2.6-.72,3.08-1.3-.57-2.81-.39-4.08-1.1-1.77-.49-2-2.07-2.45-3.46-5.86-16.77-11.4-33.65-17.2-50.45-.39-1.13-1.1-2.29-.22-3.52A22.36,22.36,0,0,1,170.08,239.77Z" style="fill:#904528"/><path d="M202.63,253.16a189.75,189.75,0,0,0-6.74-18c-.76-.49-1.25-1.07-.56-2l4.3-1.41c5.94,15.66,11.11,31.57,16.46,47.43,3.09,9.15,6.26,18.26,9.41,27.39.31.91.39,2,1.75,2.08.53.34,1.49.15,1.55,1.08,0,.64-.41.67-.89.48-2.86,0-4.11-1.74-5-4.16-4.22-11.16-8.52-22.29-12.79-33.43-2.59-2.41-3-5.86-4.17-8.93C204.63,260.23,202.59,257,202.63,253.16Z" style="fill:#673218"/><path d="M64.57,319.05c4.89-12.34,8.65-25.07,12.94-37.63,3.56-10.43,7.16-20.85,10.71-31.29.48-1.4.75-2.86,1.12-4.3a11.12,11.12,0,0,1,5.21.57c-.75,2.26-1.51,4.52-2.26,6.78a29.7,29.7,0,0,1-5.41,14q-9.24,24.13-18.49,48.24c-.64,1.66-.75,3.76-3,4.42C64.6,320.18,64.43,319.78,64.57,319.05Z" style="fill:#683218"/><path d="M56,238.24l-5.63,15.69c0,4.59-2.5,8.45-4,12.58-.93,2.59-1.12,5.66-3.64,7.53-2.52,6.54-5.15,13-7.51,19.63-1.07,3-2.64,5.14-5.85,5.82,3-3.56,4.06-8,5.51-12.29,3.82-11.38,7.84-22.71,11.71-34.09,1.87-5.5,3.58-11.05,5.36-16.58Z" style="fill:#683218"/><path d="M163.61,241q9.36,27.51,18.67,55c.42,1.22.95,2,2.24,2.09.11.76-.08,1.2-1,.87-2.71-.17-3.24-2.37-4-4.32q-5.39-14-10.74-28a29.43,29.43,0,0,1-5.21-13.47q-2-5.81-4-11.6Z" style="fill:#683218"/><path d="M109.91,66.77c-3.6,3.92-8.26,3.2-12.77,2.76a63,63,0,0,1-6.85-1.39q0-4.38.07-8.76c3.76-.19,6.77,2.3,10.32,2.87l9.09,2.13C109.82,65.17,109.86,66,109.91,66.77Z" style="fill:#f4b49f"/><path d="M135,219.74c-1.35-1.33-.58-3-.67-4.51-.16-2.7-1.49-4.82-3.07-6.85,6.4,1,8,3.51,6.7,10.47Z" style="fill:#f1ab95"/><path d="M195.33,233.14c.19.66.38,1.32.56,2-.27,1.74-1.59,1.61-2.84,1.6l-9.31-.07Z" style="fill:#f1dcd3"/><path d="M100.68,62.25c-3.79.29-7.06-1.27-10.32-2.87l-.09-3.86C93.26,58.5,97.14,60.11,100.68,62.25Z" style="fill:#e49180"/><path d="M116.31,161.24l1.39.55c1.81,1.29,4.19,1.57,5.75,3.29,1.33,1.33,3.1,2,4.63,3,9.26,6.21,17,14.28,26,20.79.56.63,1.55,1,1.18,2.15l-2.25,1.5c-1.8-.19-1.25-2.77-3-3-5.16-3-9.44-7.2-13.75-11.25-5.48-5.16-11.86-9.12-17.63-13.89C117.62,163.59,116.41,162.8,116.31,161.24Z" style="fill:#073576"/><path d="M81.08,161.87c.11-1,2.59-.31,1.52-2.14l9.7.71c-5.51,4.34-9.14,10.28-13.48,15.63-2,.75-2-.62-1.88-1.88.46-3.68.59-7.51,3.59-10.31A1.77,1.77,0,0,0,81.08,161.87Z" style="fill:#0277b6"/><path d="M81.08,161.87c2-.12,2.26.6.75,1.83-3.78,3.07-3.36,7.6-4.15,11.7,0,.15.74.44,1.14.67a53.4,53.4,0,0,0-7.51,9c1.5-6.05,4.16-11.74,5.35-17.88C77.16,164.64,79.49,163.54,81.08,161.87Z" style="fill:#0259a6"/><path d="M150,189.58c2.2-.22,1.93,2.08,3,3a112,112,0,0,1-22.32,13.25c1-2.71,2.65-3.3,4.1-4.2,4.86-3,10-5.46,14.73-8.65C151.44,191.69,151.16,190.88,150,189.58Z" style="fill:#06377a"/><path d="M129.1,207.39l-2.24.15c-2.24-1.49-4.51-2.94-6.72-4.48a4.75,4.75,0,0,0-6.07,0c-.91.54-1.53.5-1.52-.76,3.08-3.66,6.6-1.85,9.84-.53a52.39,52.39,0,0,1,7.08,4.12C130.86,206.7,129.14,206.85,129.1,207.39Z" style="fill:#063778"/><path d="M155.31,191.06l-1.51-1.49c4.81-4.28,9.93-8.2,14.47-12.79a2.58,2.58,0,0,1,2.29-1c.8.42,1.11,1,.49,1.79-4.62,4.34-9,9-14.18,12.65A14.59,14.59,0,0,1,155.31,191.06Z" style="fill:#043b81"/><path d="M112.55,202.27a1.56,1.56,0,0,0,1.52.76,9.39,9.39,0,0,1-1.41,1.14c-1,.56-1.2,3.25-2.71,1.86-1.16-1.08.88-2.18,1.69-3.15A3.71,3.71,0,0,1,112.55,202.27Z" style="fill:#053e85"/><path d="M171.05,177.57a1.53,1.53,0,0,0-.75-1.49c.1-2.26,1.59-3.12,3.55-3.51a1.77,1.77,0,0,1,1,.53C174.21,175.14,172.29,176.07,171.05,177.57Z" style="fill:#034189"/><path d="M179.26,168.8l1.53-1c-.18,2.32-2,2.64-3.74,3l-.45-.22C176.33,169.18,176.33,169.18,179.26,168.8Z" style="fill:#04448c"/><path d="M174.81,173.1h-.76c0-2.06.85-3,3-2.24h0A2.11,2.11,0,0,1,174.81,173.1Z" style="fill:#04448c"/><path d="M111.86,158.58a8.72,8.72,0,0,1,4,2.45C114.1,160.94,112.52,160.52,111.86,158.58Z" style="fill:#043f7e"/><path d="M177.05,170.85c-1.52.05-2.34,1-3,2.24a7.94,7.94,0,0,0-3.75,3q-6.3,5.73-12.6,11.47a6.84,6.84,0,0,1-3.9,2C146.86,185,141,179.08,134.42,174c-2.24-1.75-4.52-3.44-6.79-5.16,2.11-2.12,4.77-1.1,7.22-1.27a4.51,4.51,0,0,1,3.2,1.09l41.21.17C179,170,176,168.29,177.05,170.85Z" style="fill:#014d9c"/><path d="M138.05,168.63l-3,0c-1-1.73.37-3.07.73-4.58.18-2.54,1.6-5,.23-7.62,1.37-1.44,1.31-3.22,1.2-5-.73-3.21-.07-6.35.48-9.5.32-5.52,1.23-11,1.89-16.45.24-2,.75-4.38,3.88-3.47v.09q-2.64,20.69-5.27,41.38C138,165.15,138.09,166.9,138.05,168.63Z" style="fill:#d9d9d9"/><path d="M168.78,144.34c0-2.73,2.39-5.49,4.86-5.57a5.83,5.83,0,0,1,5.6,5.75c0,2.18-3.17,5.2-5.47,5.25S168.8,147,168.78,144.34Z" style="fill:#d9d9d9"/><path d="M143.48,122c-3,0-2.75,2.52-3,4.21-.78,5.45-1.25,10.94-1.84,16.41-2.34.61-3.78-.76-5.12-2.35-1.1-.91-2.14-1.85-1.12-3.43,2-3.12,1.51-6.49.66-9.73-.59-2.28,0-3.23,2.24-3.56,3-.44,5.49-2.76,8.68-2.77C143.81,121.16,143.65,121.57,143.48,122Z" style="fill:#f4b5a1"/><path d="M118.56,71.32c4.23,5.28,4.84,11.38,4.59,17.89-.25,6.76-.52,13.57.64,20.32l-1,.17a77.34,77.34,0,0,1-1.17-8,112.34,112.34,0,0,1,0-12.31,27.63,27.63,0,0,0-3.77-16c-.41-.71-2.19-1.81-.12-2.81Z" style="fill:#015aa6"/><path d="M90,38.33c-1.5,1.74.47,5.15-2.91,6-2.31-2.38-4-5-3.84-8.52.12-2.31.78-4.47,3.42-4.47s3.41,2.05,3.36,4.43Z" style="fill:#f2b29b"/><path d="M109.09,33.87h-7.35c-.66,0-1.64.47-1.71-.66a1.92,1.92,0,0,1,.94-1.43C103.82,30.27,106.37,30.58,109.09,33.87Z" style="fill:#633119"/><path d="M114.44,36.73c-1.23,3.47,2.75,4.86,1.31,7.57-.57,1.06-1.92,1.41-3.67,1.3C117.58,43.52,110.85,39.94,114.44,36.73Z" style="fill:#ee9582"/><path d="M117.88,37.76c-.15.78-.16,1.7-1.16,1.56-.68-.1-.84-.92-.74-1.49s.17-1.61,1.2-1.47C118,36.48,117.71,37.31,117.88,37.76Z" style="fill:#895439"/><path d="M106.6,37.66c-.07.71-.23,1.44-1,1.25s-.65-1-.58-1.56.14-1.08.8-1C106.64,36.41,106.54,37.14,106.6,37.66Z" style="fill:#854b32"/><path d="M227.91,310.19c1-1-.72-.93-.66-1.56,1.48-1.3,3,1.64,4.47,0C231.51,311.67,229.65,310.79,227.91,310.19Z" style="fill:#84432d"/><path d="M114.14,50.38c-1.41,1-2.82.95-4.63.09,1.09-1.2,2.19-.75,3.18-.75C113.09,50.12,113.85,49.73,114.14,50.38Z" style="fill:#b76552"/><path d="M114.14,50.38l-1.45-.66c.9,0,1.67-1.29,2.51-.48C115.53,49.55,114.69,50.14,114.14,50.38Z" style="fill:#da806e"/><path d="M64.57,319.05l.87.83c-2.16.62-4.59,3.36-6.11-.81A4.91,4.91,0,0,0,64.57,319.05Z" style="fill:#773821"/><path d="M183.57,299l1-.87c.76.26,1.41.73,2.36.35,1.38-.56.9.39.67,1C186.19,299.66,184.8,300,183.57,299Z" style="fill:#793924"/><path d="M73.83,123.69c-.1-6.2,1.43-12.2,2.26-18.28a90.4,90.4,0,0,0,1.26-15.15C77.19,85.71,74.26,82.54,72,79c-.38-.58-1.22-.9-1-1.81,4.42,1.46,9.15,9,9.44,14.7.35,6.7-1.5,13-3.29,19.33C75.89,115.38,75.79,119.77,73.83,123.69Z" style="fill:#0159a6"/><path d="M89.3,69.87c8.41,2.95,15.94,3.33,23.61-1C109.06,74.49,93.17,75.38,89.3,69.87Z" style="fill:#015fa9"/><path d="M133.52,140.24l5.12,2.35-1.41,8.8C135.48,147.85,133.84,144.26,133.52,140.24Z" style="fill:#09afc1"/><path d="M121.28,119.08c2.27,4.11,4.92,8.06,4.06,13.07-.17,1-.1,2.39-1.26,2.31-1.63-.11-.7-1.4-.47-2.22.72-2.59-.56-4.82-1.2-7.18C121.88,123.1,120.63,121.28,121.28,119.08Z" style="fill:#015ba8"/><path d="M135.8,164c-.24,1.53-.49,3.05-.73,4.58l-7.44.2c-1.4-1.19-3.58-1.28-4.48-3.18,2-1.89,4.43.43,6.51-.66C131.76,165,134.14,166.82,135.8,164Z" style="fill:#a2a7ae"/><path d="M129.66,165c-2.09,1.07-4.37.16-6.51.66-1.68-1.46-4.17-1.8-5.45-3.84C121.84,162.27,125.43,164.82,129.66,165Z" style="fill:#064b9e"/><path d="M87.45,39c-2.41.2-3-1-3.23-2.44a1.51,1.51,0,0,1,1.47-1.81c2.12-.08,1,2.8,2.73,3.31C88.61,38.14,87.59,39,87.45,39Z" style="fill:#f09886"/></g></g></svg>