<svg id="Capa_1" enable-background="new 0 0 510 510" height="512" viewBox="0 0 510 510" width="512" xmlns="http://www.w3.org/2000/svg"><circle cx="255" cy="255" fill="#a5e887" r="255"/><path d="m510 255c0 140.83-114.17 255-255 255v-510c140.83 0 255 114.17 255 255z" fill="#00cc76"/><circle cx="255" cy="255" fill="#00cc76" r="171.65"/><path d="m426.65 255c0 94.8-76.85 171.65-171.65 171.65v-343.3c94.8 0 171.65 76.85 171.65 171.65z" fill="#009959"/><path d="m330.89 191.25c0 50.38-31.51 93.39-75.89 110.4-13.14 5.05-27.41 7.81-42.32 7.81-65.29 0-118.21-52.92-118.21-118.21s52.92-118.21 118.21-118.21c14.91 0 29.18 2.76 42.32 7.81 44.38 17.01 75.89 60.02 75.89 110.4z" fill="#fff5f5"/><path d="m330.89 191.25c0 50.38-31.51 93.39-75.89 110.4v-220.8c44.38 17.01 75.89 60.02 75.89 110.4z" fill="#fff5f5"/><path d="m444.59 226.81c-13.097 80.194-9.622 58.904-16.35 100.16-9.35 57.25-63.34 96.08-120.59 86.73-50.197-8.195-48.371-7.784-52.65-8.91-34.06-8.9-56.38-42.44-50.59-77.88l4.11-25.15c3.68-22.55 24.09-38.21 46.48-36.36 1.16.09 2.33.23 3.49.42 20.9 3.41 40.61-10.76 44.02-31.66l4.86-29.76c5.57-34.1 35.06-58.33 68.53-58.33 3.72 0 7.49.3 11.29.92 37.89 6.19 63.59 41.92 57.4 79.82z" fill="#914d24"/><path d="m444.59 226.81c-13.097 80.194-9.622 58.904-16.35 100.16-9.35 57.25-63.34 96.08-120.59 86.73-50.197-8.195-48.371-7.784-52.65-8.91v-139.39c1.16.09 2.33.23 3.49.42 20.9 3.41 40.61-10.76 44.02-31.66l4.86-29.76c5.57-34.1 35.06-58.33 68.53-58.33 3.72 0 7.49.3 11.29.92 37.89 6.19 63.59 41.92 57.4 79.82z" fill="#804231"/><path d="m291.684 333.654c-1.822-8.081 3.252-16.109 11.333-17.932l49.469-10.564c8.085-1.818 16.11 3.253 17.932 11.334s-3.252 16.109-11.333 17.932l-49.469 10.564c-8.087 1.821-16.111-3.254-17.932-11.334z" fill="#5b362a"/><path d="m320.01 272.941c-1.822-8.081 3.252-16.109 11.333-17.932l43.615-9.834c8.084-1.818 16.11 3.253 17.932 11.334s-3.252 16.109-11.333 17.932l-43.615 9.834c-8.087 1.821-16.11-3.254-17.932-11.334z" fill="#5b362a"/><circle cx="190.048" cy="172.6" fill="#ff9f00" r="48.309"/><path d="m104.743 337.786c-7.949-2.339-16.286 2.206-18.625 10.153l-2.152 7.312c-2.339 7.947 2.207 16.286 10.154 18.626 7.955 2.34 16.288-2.214 18.625-10.153l2.152-7.312c2.339-7.947-2.207-16.286-10.154-18.626z" fill="#ff6c6c"/><path d="m151.877 375.107c-7.948-2.341-16.286 2.206-18.625 10.153l-2.152 7.312c-2.339 7.947 2.207 16.286 10.154 18.626 7.955 2.34 16.288-2.214 18.625-10.153l2.152-7.312c2.34-7.948-2.206-16.287-10.154-18.626z" fill="#ff0059"/><path d="m183.197 345.098-7.311-2.152c-7.947-2.339-16.287 2.206-18.625 10.153-2.34 7.947 2.206 16.286 10.153 18.626l7.311 2.152c7.954 2.34 16.288-2.212 18.625-10.153 2.34-7.947-2.206-16.286-10.153-18.626z" fill="#ff6c6c"/><g fill="#ff0059"><path d="m144.822 344.325c7.274-3.966 9.956-13.076 5.991-20.35l-3.647-6.691c-3.965-7.274-13.077-9.956-20.35-5.992-7.274 3.966-9.956 13.076-5.991 20.35l3.647 6.691c3.964 7.271 13.072 9.958 20.35 5.992z"/><path d="m108.372 295.212c-4.152-7.167-13.329-9.613-20.498-5.461l-7.106 4.116c-7.168 4.152-9.613 13.33-5.461 20.498 4.15 7.165 13.325 9.616 20.498 5.461l7.106-4.116c7.168-4.152 9.613-13.33 5.461-20.498z"/></g></svg>