<?xml version="1.0" encoding="iso-8859-1"?>
<!-- Generator: Adobe Illustrator 19.0.0, SVG Export Plug-In . SVG Version: 6.00 Build 0)  -->
<svg version="1.1" id="Capa_1" xmlns="http://www.w3.org/2000/svg" xmlns:xlink="http://www.w3.org/1999/xlink" x="0px" y="0px"
	 viewBox="0 0 512 512" style="enable-background:new 0 0 512 512;" xml:space="preserve">
<path style="fill:#E0E0E2;" d="M391.199,76.3v391c0,24.598-20.099,44.7-45,44.7H195H45c-24.901,0-45-20.101-45-45V76
	c0-24.6,20.099-44.7,45-44.7h301.199C371.1,31.3,391.199,51.4,391.199,76.3z"/>
<path style="fill:#C7C5CA;" d="M391.199,76.3v391c0,24.598-20.099,44.7-45,44.7H195V31.3h151.199
	C371.1,31.3,391.199,51.4,391.199,76.3z"/>
<path style="fill:#8A8891;" d="M233.401,346c0,8.399-6.901,15-15,15H75c-8.401,0-15-6.601-15-15c0-8.401,6.599-15,15-15h143.401
	C226.5,331,233.401,337.599,233.401,346z"/>
<path style="fill:#7A7780;" d="M233.401,346c0,8.399-6.901,15-15,15H195v-30h23.401C226.5,331,233.401,337.599,233.401,346z"/>
<path style="fill:#8A8891;" d="M200.099,166c0,4.499-2.1,8.399-5.099,11.4c-2.701,2.1-6,3.6-9.901,3.6H75c-8.401,0-15-6.601-15-15
	c0-8.401,6.599-15,15-15h110.099c3.9,0,7.2,1.5,9.901,3.6C197.999,157.599,200.099,161.499,200.099,166z"/>
<path style="fill:#7A7780;" d="M200.099,166c0,4.499-2.1,8.399-5.099,11.4v-22.8C197.999,157.599,200.099,161.499,200.099,166z"/>
<path style="fill:#8A8891;" d="M262.2,226c0,8.399-6.599,15-15,15H75c-8.401,0-15-6.601-15-15c0-8.401,6.599-15,15-15h172.2
	C255.601,211,262.2,217.599,262.2,226z"/>
<path style="fill:#7A7780;" d="M262.2,226c0,8.399-6.599,15-15,15H195v-30h52.2C255.601,211,262.2,217.599,262.2,226z"/>
<path style="fill:#8A8891;" d="M292.2,286c0,8.399-6.599,15-15,15H75c-8.401,0-15-6.601-15-15c0-8.401,6.599-15,15-15h202.2
	C285.601,271,292.2,277.599,292.2,286z"/>
<path style="fill:#7A7780;" d="M292.2,286c0,8.399-6.599,15-15,15H195v-30h82.2C285.601,271,292.2,277.599,292.2,286z"/>
<path style="fill:#8A8891;" d="M195,421H75c-8.291,0-15-6.709-15-15s6.709-15,15-15h120c8.291,0,15,6.709,15,15S203.291,421,195,421
	z"/>
<g>
	<path style="fill:#7A7780;" d="M75,91c-8.291,0-15-6.709-15-15V15c0-8.291,6.709-15,15-15s15,6.709,15,15v61
		C90,84.291,83.291,91,75,91z"/>
	<path style="fill:#7A7780;" d="M135,91c-8.291,0-15-6.709-15-15V15c0-8.291,6.709-15,15-15s15,6.709,15,15v61
		C150,84.291,143.291,91,135,91z"/>
</g>
<g>
	<path style="fill:#57555C;" d="M255,91c-8.291,0-15-6.709-15-15V15c0-8.291,6.709-15,15-15s15,6.709,15,15v61
		C270,84.291,263.291,91,255,91z"/>
	<path style="fill:#57555C;" d="M315,91c-8.291,0-15-6.709-15-15V15c0-8.291,6.709-15,15-15s15,6.709,15,15v61
		C330,84.291,323.291,91,315,91z"/>
</g>
<path style="fill:#FD6243;" d="M494.449,217l-26.4,26.398l-21.299-8.699L419.449,207.4l-27.599-27.601l-8.699-20.999l26.398-26.7
	c22.5-22.5,62.1-22.5,84.901,0C517.85,155.499,517.85,193.599,494.449,217z"/>
<path style="fill:#FF4F19;" d="M494.449,217l-26.4,26.398l-21.299-8.699L419.449,207.4l75-75.3
	C517.85,155.499,517.85,193.599,494.449,217z"/>
<polygon style="fill:#A6673A;" points="468.049,243.399 307.25,404.2 283.849,393.399 258.65,367.899 233.449,342.7 222.349,319.3 
	361.85,179.799 383.151,158.8 425.45,201.099 "/>
<polygon style="fill:#99522E;" points="468.049,243.399 307.25,404.2 283.849,393.399 258.65,367.899 425.45,201.099 "/>
<path style="fill:#FFC080;" d="M307.25,404.2l-14.399,14.399c-3.001,2.701-5.4,3.3-9.001,4.799l-92.399,30.601
	c-5.101,1.8-11.1,0.3-15.3-3.6c-3.9-3.9-5.4-9.901-3.6-15.3L203.45,342.7c1.201-3.602,1.8-6.301,4.501-9.001L222.35,319.3
	l42.601,42.599L307.25,404.2z"/>
<path style="fill:#FFB366;" d="M307.25,404.2l-14.399,14.399c-3.001,2.701-5.4,3.3-9.001,4.799l-92.399,30.601
	c-5.101,1.8-11.1,0.3-15.3-3.6l88.801-88.5L307.25,404.2z"/>
<path style="fill:#7A7780;" d="M210,15v61c0,8.399-6.599,15-15,15s-15-6.601-15-15V15c0-8.401,6.599-15,15-15S210,6.599,210,15z"/>
<path style="fill:#57555C;" d="M210,15v61c0,8.399-6.599,15-15,15V0C203.401,0,210,6.599,210,15z"/>
<g>
</g>
<g>
</g>
<g>
</g>
<g>
</g>
<g>
</g>
<g>
</g>
<g>
</g>
<g>
</g>
<g>
</g>
<g>
</g>
<g>
</g>
<g>
</g>
<g>
</g>
<g>
</g>
<g>
</g>
</svg>
