<svg id="Capa_1" enable-background="new 0 0 512 512" height="512" viewBox="0 0 512 512" width="512" xmlns="http://www.w3.org/2000/svg"><g><path d="m208.053 384.796v31.521c0 12.054-5.776 23.247-15.263 29.575l-22.915 15.285h172.249l-22.915-15.285c-9.487-6.328-15.263-17.521-15.263-29.575v-31.521c-31.531 0-64.361 0-95.893 0z" fill="#b1dbfc"/><path d="m208.053 384.796v31.521c0 12.054-5.776 23.247-15.263 29.575l-22.915 15.285h55.596l.483-.322c9.487-6.328 15.263-17.521 15.263-29.575v-21.822c0-5.357 4.342-9.699 9.699-9.699h53.03v-14.963z" fill="#8bcaff"/><path d="m358.16 460.072h-204.32c-5.689 0-10.301 4.612-10.301 10.301v11.535c0 5.689 4.612 10.301 10.301 10.301h204.32c5.689 0 10.301-4.612 10.301-10.301v-11.535c0-5.689-4.612-10.301-10.301-10.301z" fill="#dfebfa"/><path d="m200.63 481.908v-11.535c0-5.689 4.612-10.301 10.301-10.301h-57.091c-5.689 0-10.301 4.612-10.301 10.301v11.535c0 5.689 4.612 10.301 10.301 10.301h57.091c-5.689 0-10.301-4.612-10.301-10.301z" fill="#b1dbfc"/><g><g><path d="m482.311 19.791h-452.622c-16.371 0-29.689 13.318-29.689 29.689v306.986c0 16.371 13.318 29.689 29.689 29.689h452.622c16.371 0 29.689-13.318 29.689-29.689v-306.986c0-16.371-13.318-29.689-29.689-29.689z" fill="#695d67"/></g></g><path d="m34.342 356.467v-306.987c0-16.371 13.318-29.689 29.689-29.689h-34.342c-16.371 0-29.689 13.318-29.689 29.689v306.986c0 16.371 13.318 29.689 29.689 29.689h34.341c-16.37.001-29.688-13.317-29.688-29.688z" fill="#554e56"/><g><path d="m32.137 88.075v2.06 259.611c0 2.36 1.912 4.272 4.272 4.272h439.182c2.359 0 4.272-1.912 4.272-4.272 0-6.921 0-186.243 0-261.671z" fill="#dfebfa"/></g><path d="m63.045 349.747v-259.611-2.06h-30.908v2.06 259.611c0 2.36 1.912 4.272 4.272 4.272h30.907c-2.359 0-4.271-1.912-4.271-4.272z" fill="#b1dbfc"/><path d="m475.591 51.928h-398.09v38.208h402.362c0-17.883 0-30.339 0-33.936 0-2.36-1.913-4.272-4.272-4.272z" fill="#5cb3f8"/><path d="m78.531 51.928h-42.122c-2.359 0-4.272 1.912-4.272 4.272v33.936h46.394z" fill="#ff656f"/><path d="m67.315 51.928h-30.906c-2.359 0-4.272 1.912-4.272 4.272v33.936h30.906v-33.936c0-2.359 1.913-4.272 4.272-4.272z" fill="#ff4756"/><path d="m262.62 243.532c-5.713 2.863-12.442 2.863-18.155 0l-79.89-40.028v61.112c1.012.862 2.089 1.658 3.287 2.304 25.505 13.753 54.673 21.58 85.681 21.58s60.176-7.827 85.681-21.58c1.198-.646 2.275-1.442 3.287-2.304v-61.112z" fill="#6e60b8"/><path d="m201.733 222.121-37.159-18.618v61.112c1.012.862 2.089 1.658 3.287 2.304 10.689 5.764 22.029 10.471 33.872 14.013z" fill="#6353b2"/><path d="m339.223 263.829c-25.505 13.753-54.672 21.58-85.681 21.58s-60.176-7.827-85.681-21.58c-1.198-.646-2.275-1.442-3.287-2.304v20.93c0 6.738 3.595 13.04 9.526 16.239 23.648 12.751 50.691 20.009 79.442 20.009s55.794-7.257 79.442-20.009c5.931-3.198 9.526-9.501 9.526-16.239v-20.93c-1.012.862-2.089 1.658-3.287 2.304z" fill="#9790cc"/><path d="m201.733 277.842c-11.842-3.542-23.182-8.249-33.872-14.013-1.198-.646-2.275-1.442-3.287-2.304v20.93c0 6.738 3.595 13.04 9.526 16.239 8.772 4.73 18.013 8.699 27.632 11.827v-32.679z" fill="#8479c2"/><path d="m377.61 174.011-114.99-57.614c-5.713-2.863-12.442-2.863-18.155 0l-114.99 57.614c-6.597 3.306-6.597 12.721 0 16.027l114.99 57.614c5.713 2.863 12.442 2.863 18.155 0l114.99-57.614c6.597-3.306 6.597-12.721 0-16.027z" fill="#9790cc"/><path d="m377.61 174.011-114.99-57.614c-5.713-2.863-12.442-2.863-18.155 0l-114.99 57.614c-6.597 3.306-6.597 12.721 0 16.027l114.99 57.614c5.713 2.863 12.442 2.863 18.155 0l114.99-57.614c6.597-3.306 6.597-12.721 0-16.027z" fill="#9790cc"/><path d="m281.834 229.699-119.122-59.684c-4.076-2.043-5.701-6.334-4.915-10.194l-28.323 14.191c-6.597 3.306-6.597 12.721 0 16.027l114.99 57.614c5.713 2.863 12.442 2.863 18.155 0l31.932-15.999c-4.288.685-8.74.038-12.717-1.955z" fill="#8479c2"/><g><path d="m382.558 272.862c-4.267 0-7.726-3.459-7.726-7.726v-75.384h-111.294c-4.267 0-7.726-3.46-7.726-7.727s3.459-7.726 7.726-7.726h119.02c4.267 0 7.726 3.459 7.726 7.726v83.111c0 4.267-3.459 7.726-7.726 7.726z" fill="#6353b2"/></g><g><path d="m403.427 317.379-9.133-36.903c-2.776 3.438-6.974 5.681-11.736 5.681-4.763 0-8.96-2.243-11.736-5.68l-9.133 36.903c-1.849 7.053 3.472 13.948 10.762 13.948h20.213c7.291-.001 12.612-6.895 10.763-13.949z" fill="#fec458"/></g><g><path d="m380.232 317.379 8.013-32.376c-1.753.729-3.664 1.154-5.687 1.154-4.763 0-8.96-2.243-11.736-5.68l-9.133 36.903c-1.849 7.053 3.472 13.948 10.762 13.948h18.543c-7.29-.001-12.611-6.895-10.762-13.949z" fill="#f9ab49"/></g><circle cx="253.542" cy="182.025" fill="#8479c2" r="15.147"/><path d="m397.704 273.071c0 4.868-2.297 9.2-5.866 11.971-2.564 1.99-15.555-11.971-15.555-11.971s12.991-13.962 15.555-11.971c3.57 2.77 5.866 7.102 5.866 11.971z" fill="#ffe181"/><path d="m385.954 273.071c0-4.868 2.306-9.188 5.875-11.959-2.564-1.99-5.775-3.187-9.272-3.187-8.365 0-15.147 6.781-15.147 15.147s6.781 15.147 15.147 15.147c3.497 0 6.708-1.197 9.272-3.187-3.569-2.773-5.875-7.093-5.875-11.961z" fill="#fec458"/></g></svg>