<svg height="512pt" viewBox="0 0 512 512" width="512pt" xmlns="http://www.w3.org/2000/svg"><path d="m304 32h176v96h-176zm0 0" fill="#00ddc2"/><path d="m304 64h176v64h-176zm0 0" fill="#0ac1a7"/><path d="m176 0h160v128h-160zm0 0" fill="#ff668b"/><path d="m176 64h160v64h-160zm0 0" fill="#f7487a"/><path d="m272 456c0 30.929688-25.070312 56-56 56s-56-25.070312-56-56 25.070312-56 56-56 56 25.070312 56 56zm0 0" fill="#57565c"/><path d="m464 456c0 30.929688-25.070312 56-56 56s-56-25.070312-56-56 25.070312-56 56-56 56 25.070312 56 56zm0 0" fill="#57565c"/><path d="m496 368h-364.335938l-80-304h-35.664062c-8.832031 0-16-7.167969-16-16s7.167969-16 16-16h60.335938l80 304h339.664062c8.832031 0 16 7.167969 16 16s-7.167969 16-16 16zm0 0" fill="#77959e"/><path d="m448 304h-267.054688l-54.65625-208h385.710938v144c0 35.34375-28.65625 64-64 64zm0 0" fill="#fdd835"/><g fill="#fbc02d"><path d="m464 256c-8.832031 0-16-7.167969-16-16v-96c0-8.832031 7.167969-16 16-16s16 7.167969 16 16v96c0 8.832031-7.167969 16-16 16zm0 0"/><path d="m304 256c-8.832031 0-16-7.167969-16-16v-96c0-8.832031 7.167969-16 16-16s16 7.167969 16 16v96c0 8.832031-7.167969 16-16 16zm0 0"/><path d="m384 256c-8.832031 0-16-7.167969-16-16v-96c0-8.832031 7.167969-16 16-16s16 7.167969 16 16v96c0 8.832031-7.167969 16-16 16zm0 0"/><path d="m224 256c-8.832031 0-16-7.167969-16-16v-96c0-8.832031 7.167969-16 16-16s16 7.167969 16 16v96c0 8.832031-7.167969 16-16 16zm0 0"/></g><path d="m216 480c-25.28125 0-46.449219-16.945312-53.390625-40-1.539063 5.105469-2.609375 10.398438-2.609375 16 0 30.878906 25.121094 56 56 56s56-25.121094 56-56c0-5.601562-1.070312-10.894531-2.609375-16-6.941406 23.054688-28.109375 40-53.390625 40zm0 0" fill="#2d2d30"/><path d="m408 480c-25.28125 0-46.449219-16.945312-53.390625-40-1.539063 5.105469-2.609375 10.398438-2.609375 16 0 30.878906 25.121094 56 56 56s56-25.121094 56-56c0-5.601562-1.070312-10.894531-2.609375-16-6.941406 23.054688-28.109375 40-53.390625 40zm0 0" fill="#2d2d30"/><path d="m448 272h-275.457031l8.417969 32h267.039062c35.34375 0 64-28.65625 64-64v-32c0 35.34375-28.65625 64-64 64zm0 0" fill="#fbc02d"/></svg>