<svg width="23" height="37" viewBox="0 0 23 37" fill="none" xmlns="http://www.w3.org/2000/svg">
<path d="M9.38544 9.67476L9.38543 9.67475C9.07113 9.36061 8.56178 9.36062 8.24743 9.67474L8.2474 9.67477L6.7774 11.1448L6.32686 10.6942L6.32684 10.6942C6.01253 10.3801 5.50319 10.3801 5.18883 10.6942L5.1888 10.6942C4.87456 11.0085 4.87458 11.518 5.18879 11.8323L5.1888 11.8323L6.20833 12.8518L6.20835 12.8519C6.36545 13.0089 6.57157 13.0875 6.77733 13.0875C6.98308 13.0875 7.1892 13.0089 7.3463 12.8519L7.34632 12.8518L9.38536 10.8128C9.38537 10.8128 9.38538 10.8128 9.38539 10.8128C9.69976 10.4985 9.69975 9.98899 9.38544 9.67476Z" fill="#FFC045" stroke="#FDB827" stroke-width="0.25"/>
<path d="M9.38544 15.7919L9.38543 15.7919C9.07113 15.4778 8.56178 15.4778 8.24743 15.7919L8.2474 15.792L6.7774 17.262L6.32686 16.8114L6.32684 16.8114C6.01253 16.4973 5.50319 16.4973 5.18883 16.8114L5.1888 16.8114C4.87456 17.1257 4.87458 17.6352 5.18879 17.9495L5.1888 17.9495L6.20833 18.969L6.20835 18.969C6.36545 19.1261 6.57157 19.2047 6.77733 19.2047C6.98308 19.2047 7.1892 19.1261 7.3463 18.969L7.34632 18.969L9.38536 16.93C9.38537 16.93 9.38538 16.93 9.38539 16.93C9.69976 16.6157 9.69975 16.1062 9.38544 15.7919Z" fill="#FFC045" stroke="#FDB827" stroke-width="0.25"/>
<path d="M8.24747 21.9091L8.24747 21.9091L6.7774 23.3791L6.32686 22.9286L6.32684 22.9286C6.01253 22.6144 5.50319 22.6144 5.18883 22.9285L5.1888 22.9286C4.87456 23.2428 4.87458 23.7523 5.18879 24.0666L5.1888 24.0666L6.20833 25.0862L6.20835 25.0862C6.36545 25.2432 6.57157 25.3219 6.77733 25.3219C6.98308 25.3219 7.1892 25.2432 7.3463 25.0862L7.34632 25.0862L9.38539 23.0471C9.69963 22.7329 9.69961 22.2234 9.3854 21.9091L9.38538 21.909C9.07114 21.5949 8.56177 21.5949 8.24747 21.9091Z" fill="#FFC045" stroke="#FDB827" stroke-width="0.25"/>
<path d="M17.9922 11.4781H11.875C11.4306 11.4781 11.0703 11.8384 11.0703 12.2828C11.0703 12.7272 11.4306 13.0875 11.875 13.0875H17.9922C18.4365 13.0875 18.7969 12.7272 18.7969 12.2828C18.7969 11.8385 18.4366 11.4781 17.9922 11.4781Z" fill="#FFC045" stroke="#FDB827" stroke-width="0.25"/>
<path d="M17.9922 17.5953H11.875C11.4306 17.5953 11.0703 17.9556 11.0703 18.4C11.0703 18.8444 11.4306 19.2047 11.875 19.2047H17.9922C18.4365 19.2047 18.7969 18.8444 18.7969 18.4C18.7969 17.9556 18.4366 17.5953 17.9922 17.5953Z" fill="#FFC045" stroke="#FDB827" stroke-width="0.25"/>
<path d="M18.7969 24.5172C18.7969 24.0728 18.4365 23.7125 17.9922 23.7125H11.875C11.4306 23.7125 11.0703 24.0728 11.0703 24.5172C11.0703 24.9615 11.4306 25.3219 11.875 25.3219H17.9922C18.4366 25.3219 18.7969 24.9615 18.7969 24.5172Z" fill="#FFC045" stroke="#FDB827" stroke-width="0.25"/>
<path d="M12.8945 4.95312H10.8555C10.4111 4.95312 10.0508 5.31345 10.0508 5.75781C10.0508 6.20217 10.4111 6.5625 10.8555 6.5625H12.8945C13.3389 6.5625 13.6992 6.20217 13.6992 5.75781C13.6992 5.31346 13.339 4.95312 12.8945 4.95312Z" fill="#FFC045" stroke="#FDB827" stroke-width="0.25"/>
<path d="M13.6992 30.6344C13.6992 30.19 13.3389 29.8297 12.8945 29.8297H10.8555C10.4111 29.8297 10.0508 30.19 10.0508 30.6344C10.0508 31.0787 10.4111 31.4391 10.8555 31.4391H12.8945C13.339 31.4391 13.6992 31.0787 13.6992 30.6344Z" fill="#FFC045" stroke="#FDB827" stroke-width="0.25"/>
<path d="M0.875 3.71875V33.0812C0.875 34.6494 2.1506 35.925 3.71875 35.925H8.81641C9.26077 35.925 9.62109 35.5647 9.62109 35.1203C9.62109 34.676 9.26077 34.3156 8.81641 34.3156H3.71875C3.03823 34.3156 2.48438 33.7618 2.48438 33.0812V3.71875C2.48438 3.03823 3.03823 2.48438 3.71875 2.48438H20.0312C20.7118 2.48438 21.2656 3.03823 21.2656 3.71875V33.0812C21.2656 33.7618 20.7118 34.3156 20.0312 34.3156H14.9336C14.4892 34.3156 14.1289 34.676 14.1289 35.1203C14.1289 35.5647 14.4892 35.925 14.9336 35.925H20.0312C21.5994 35.925 22.875 34.6494 22.875 33.0812V3.71875C22.875 2.1506 21.5994 0.875 20.0312 0.875H3.71875C2.1506 0.875 0.875 2.1506 0.875 3.71875Z" fill="#FFC045" stroke="#FDB827" stroke-width="0.25"/>
<path d="M11.875 35.925C12.3194 35.925 12.6797 35.5647 12.6797 35.1203C12.6797 34.6759 12.3194 34.3156 11.875 34.3156C11.4306 34.3156 11.0703 34.6759 11.0703 35.1203C11.0703 35.5647 11.4306 35.925 11.875 35.925Z" fill="#FFC045" stroke="#FDB827" stroke-width="0.25"/>
</svg>
