<svg height="512" viewBox="0 0 512 512" width="512" xmlns="http://www.w3.org/2000/svg"><g id="Flat"><path d="m208 48-8 16 8 8 8 16h16v32l32-24-8-24-16-32z" fill="#fdc5ca"/><path d="m184 104 24 8v16l24 8v32l-64-32z" fill="#fdc5ca"/><path d="m24 424h416v32h-416z" fill="#68737f"/><path d="m144 248-62.4 208h-32l62.4-208z" fill="#3e454d"/><path d="m463.98548 488h-288v-32h276a8 8 0 0 1 6.4 3.2l12 16a8 8 0 0 1 -6.4 12.8z" fill="#4f5761"/><path d="m336 488h-296l7.5-32h276.5a8 8 0 0 1 6.4 3.2l12 16a8 8 0 0 1 -6.4 12.8z" fill="#3e454d"/><path d="m192 488h-120v-32h108a8 8 0 0 1 6.4 3.2l12 16a8 8 0 0 1 -6.4 12.8z" fill="#4f5761"/><path d="m112 248-72-72 32-32 72 72v32z" fill="#68737f"/><path d="m144 216h48a16 16 0 0 1 16 16 16 16 0 0 1 -16 16h-48a0 0 0 0 1 0 0v-32a0 0 0 0 1 0 0z" fill="#4f5761"/><path d="m89.95 456-9.6 32h-48.7l9.6-32z" fill="#8f9eb0"/><path d="m440 464h40l8-48h-48z" fill="#8f9eb0"/><path d="m224 392-8.83008 17.66992-7.16992 14.33008-56-32a30.06006 30.06006 0 0 1 1.58008-2.77 28.97375 28.97375 0 0 1 24.30992-13.23h22.11z" fill="#529ddf"/><path d="m416 320v64a23.61906 23.61906 0 0 1 -21.93994-14.85986l-10.06006-25.14014v-24z" fill="#529ddf"/><path d="m304 200a96.58206 96.58206 0 0 1 -28.28 68.27979l-6.91992 6.92041-28.80008 28.7998 8 24-24 64-24-16 6.93994-76.37012a79.84868 79.84868 0 0 1 5.40015-22.46972l4.86991-12.19043 22.79-56.96973z" fill="#fdc5ca"/><path d="m384 320v24l-80.6-20.1499a32.0202 32.0202 0 0 1 -21.65-18.43994l-5.04-11.76026-7.90991-18.4497-28.80009-67.2002 64-8a151.78518 151.78518 0 0 1 16 67.77979v20.22021h24z" fill="#fdc5ca"/><path d="m320 267.77979v4.22021l-43.29 21.6499-1.11991-2.6099-6.79-15.83984-17.24 17.23974-34.35009-27.47017 22.79-56.96973 64-8a151.78518 151.78518 0 0 1 16 67.77979z" fill="#529ddf"/><path d="m301.35 262.06006a113.12066 113.12066 0 0 1 -14.32 17.54l-11.43991 11.43994-6.79-15.83984 6.91992-6.92041a96.8114 96.8114 0 0 0 12.27999-15.03975z" fill="#317ece"/><path d="m217.21 131.07 5.79 17.859-12.867 8.138 21.867 10.933v-32z" fill="#fc979e"/><path d="m227.88759 116.56206a31.45382 31.45382 0 0 1 24.67441-24.67446l8.41255-1.68251a17.841 17.841 0 0 1 17.7717 6.78993l5.14749 6.86332a72.36549 72.36549 0 0 1 14.11394 36.21859l5.99232 59.92307-64 8-11.69981-52.64915a93.909 93.909 0 0 1 -.4126-38.78879z" fill="#e04446"/><path d="m264.41887 91.89528a21.67605 21.67605 0 0 0 -16.41887 21.02887v.05435a21.676 21.676 0 0 0 14.06507 20.29591l7.26827 2.72559 18.66666 16a67.77706 67.77706 0 0 0 -30.3108 7.15541l-1.6892.84459-16-8-24 8 8 32 82.554-19.05092a16 16 0 0 0 10.12213-23.82219l-28.413-47.355a21.67606 21.67606 0 0 0 -23.84426-9.87661z" fill="#fdc5ca"/><path d="m256 72-24-24h-24a24 24 0 0 1 -24-24h64z" fill="#ba8b5d"/><g fill="#d4e4f0"><path d="m215.16992 409.66992-7.16992 14.33008-56-32 1.58008-2.77a28.78094 28.78094 0 0 1 9.6499-9.23975z"/><path d="m416 320v64a23.64383 23.64383 0 0 1 -16-6.24023v-57.75977z"/></g></g></svg>